<svg xmlns="http://www.w3.org/2000/svg" width="1280" height="640">
  <rect width="100%" height="100%" fill="white"/>
  <!-- NIL Node Information -->
  <rect x="20" y="20" width="180" height="80" fill="lightgray" stroke="black" stroke-width="1" rx="5" />
  <text x="30" y="40" font-size="14px" font-weight="bold" fill="black">NIL Node Info:</text>
  <text x="30" y="55" font-size="12px" fill="black">Parent: 0xaaaaaaac12c0</text>
  <text x="30" y="70" font-size="12px" fill="red">Left: 0xaaaaaaac12f0</text>
  <text x="30" y="85" font-size="12px" fill="black">Right: 0xaaaaaaac12c0</text>
  <line x1="640" y1="80" x2="320" y2="160" stroke="gray" stroke-width="1" stroke-dasharray="3,3" />
  <rect x="310" y="150" width="20" height="20" fill="gray" stroke="black" stroke-width="1" />
  <text x="320" y="160" text-anchor="middle" dy=".3em" font-size="10px" fill="white" font-weight="bold">NIL</text>
  <line x1="640" y1="80" x2="960" y2="160" stroke="black" stroke-width="2" />
  <line x1="960" y1="160" x2="800" y2="240" stroke="gray" stroke-width="1" stroke-dasharray="3,3" />
  <rect x="790" y="230" width="20" height="20" fill="gray" stroke="black" stroke-width="1" />
  <text x="800" y="240" text-anchor="middle" dy=".3em" font-size="10px" fill="white" font-weight="bold">NIL</text>
  <line x1="960" y1="160" x2="1120" y2="240" stroke="black" stroke-width="2" />
  <line x1="1120" y1="240" x2="1040" y2="320" stroke="gray" stroke-width="1" stroke-dasharray="3,3" />
  <rect x="1030" y="310" width="20" height="20" fill="gray" stroke="black" stroke-width="1" />
  <text x="1040" y="320" text-anchor="middle" dy=".3em" font-size="10px" fill="white" font-weight="bold">NIL</text>
  <line x1="1120" y1="240" x2="1200" y2="320" stroke="black" stroke-width="2" />
  <line x1="1200" y1="320" x2="1160" y2="400" stroke="gray" stroke-width="1" stroke-dasharray="3,3" />
  <rect x="1150" y="390" width="20" height="20" fill="gray" stroke="black" stroke-width="1" />
  <text x="1160" y="400" text-anchor="middle" dy=".3em" font-size="10px" fill="white" font-weight="bold">NIL</text>
  <line x1="1200" y1="320" x2="1240" y2="400" stroke="black" stroke-width="2" />
  <line x1="1240" y1="400" x2="1220" y2="480" stroke="gray" stroke-width="1" stroke-dasharray="3,3" />
  <rect x="1210" y="470" width="20" height="20" fill="gray" stroke="black" stroke-width="1" />
  <text x="1220" y="480" text-anchor="middle" dy=".3em" font-size="10px" fill="white" font-weight="bold">NIL</text>
  <line x1="1240" y1="400" x2="1260" y2="480" stroke="gray" stroke-width="1" stroke-dasharray="3,3" />
  <rect x="1250" y="470" width="20" height="20" fill="gray" stroke="black" stroke-width="1" />
  <text x="1260" y="480" text-anchor="middle" dy=".3em" font-size="10px" fill="white" font-weight="bold">NIL</text>
  <circle cx="1240" cy="400" r="20" fill="red" stroke="black" stroke-width="2" />
  <text x="1240" y="400" text-anchor="middle" dy=".3em" font-size="18px" fill="white" font-weight="bold">4</text>
  <circle cx="1200" cy="320" r="20" fill="red" stroke="black" stroke-width="2" />
  <text x="1200" y="320" text-anchor="middle" dy=".3em" font-size="18px" fill="white" font-weight="bold">3</text>
  <circle cx="1120" cy="240" r="20" fill="red" stroke="black" stroke-width="2" />
  <text x="1120" y="240" text-anchor="middle" dy=".3em" font-size="18px" fill="white" font-weight="bold">2</text>
  <circle cx="960" cy="160" r="20" fill="red" stroke="black" stroke-width="2" />
  <text x="960" y="160" text-anchor="middle" dy=".3em" font-size="18px" fill="white" font-weight="bold">1</text>
  <circle cx="640" cy="80" r="20" fill="red" stroke="black" stroke-width="2" />
  <text x="640" y="80" text-anchor="middle" dy=".3em" font-size="18px" fill="white" font-weight="bold">0</text>
</svg>
