<svg xmlns="http://www.w3.org/2000/svg" width="640" height="560">
  <rect width="100%" height="100%" fill="white"/>
  <!-- NIL Node Information -->
  <rect x="20" y="20" width="180" height="80" fill="lightgray" stroke="black" stroke-width="1" rx="5" />
  <text x="30" y="40" font-size="14px" font-weight="bold" fill="black">NIL Node Info:</text>
  <text x="30" y="55" font-size="12px" fill="black">Parent: 0xaaaaaaac12c0</text>
  <text x="30" y="70" font-size="12px" fill="red">Left: 0xaaaaaaac12f0</text>
  <text x="30" y="85" font-size="12px" fill="black">Right: 0xaaaaaaac12c0</text>
  <line x1="320" y1="80" x2="160" y2="160" stroke="gray" stroke-width="1" stroke-dasharray="3,3" />
  <rect x="150" y="150" width="20" height="20" fill="gray" stroke="black" stroke-width="1" />
  <text x="160" y="160" text-anchor="middle" dy=".3em" font-size="10px" fill="white" font-weight="bold">NIL</text>
  <line x1="320" y1="80" x2="480" y2="160" stroke="black" stroke-width="2" />
  <line x1="480" y1="160" x2="400" y2="240" stroke="gray" stroke-width="1" stroke-dasharray="3,3" />
  <rect x="390" y="230" width="20" height="20" fill="gray" stroke="black" stroke-width="1" />
  <text x="400" y="240" text-anchor="middle" dy=".3em" font-size="10px" fill="white" font-weight="bold">NIL</text>
  <line x1="480" y1="160" x2="560" y2="240" stroke="black" stroke-width="2" />
  <line x1="560" y1="240" x2="520" y2="320" stroke="gray" stroke-width="1" stroke-dasharray="3,3" />
  <rect x="510" y="310" width="20" height="20" fill="gray" stroke="black" stroke-width="1" />
  <text x="520" y="320" text-anchor="middle" dy=".3em" font-size="10px" fill="white" font-weight="bold">NIL</text>
  <line x1="560" y1="240" x2="600" y2="320" stroke="black" stroke-width="2" />
  <line x1="600" y1="320" x2="580" y2="400" stroke="gray" stroke-width="1" stroke-dasharray="3,3" />
  <rect x="570" y="390" width="20" height="20" fill="gray" stroke="black" stroke-width="1" />
  <text x="580" y="400" text-anchor="middle" dy=".3em" font-size="10px" fill="white" font-weight="bold">NIL</text>
  <line x1="600" y1="320" x2="620" y2="400" stroke="gray" stroke-width="1" stroke-dasharray="3,3" />
  <rect x="610" y="390" width="20" height="20" fill="gray" stroke="black" stroke-width="1" />
  <text x="620" y="400" text-anchor="middle" dy=".3em" font-size="10px" fill="white" font-weight="bold">NIL</text>
  <circle cx="600" cy="320" r="20" fill="red" stroke="black" stroke-width="2" />
  <text x="600" y="320" text-anchor="middle" dy=".3em" font-size="18px" fill="white" font-weight="bold">3</text>
  <circle cx="560" cy="240" r="20" fill="red" stroke="black" stroke-width="2" />
  <text x="560" y="240" text-anchor="middle" dy=".3em" font-size="18px" fill="white" font-weight="bold">2</text>
  <circle cx="480" cy="160" r="20" fill="red" stroke="black" stroke-width="2" />
  <text x="480" y="160" text-anchor="middle" dy=".3em" font-size="18px" fill="white" font-weight="bold">1</text>
  <circle cx="320" cy="80" r="20" fill="red" stroke="black" stroke-width="2" />
  <text x="320" y="80" text-anchor="middle" dy=".3em" font-size="18px" fill="white" font-weight="bold">0</text>
</svg>
